<svg version="1.1" xmlns="http://www.w3.org/2000/svg" xmlns:xlink="http://www.w3.org/1999/xlink" width="613" height="793" viewBox="-0.5,-0.5,613,793"><g fill="none" fill-rule="nonzero" stroke="none" stroke-width="1" stroke-linecap="butt" stroke-linejoin="miter" stroke-miterlimit="10" stroke-dasharray="" stroke-dashoffset="0" font-family="none" font-weight="none" font-size="none" text-anchor="none" style="mix-blend-mode: normal"><path d="M0,792v-792h612v792z" fill="#f5f5f5" stroke="#000000"/><path d="M72,216h18.72" fill="none" stroke="#0000ff"/><path d="M90.72,233.90567h18.72" fill="none" stroke="#0000ff"/><path d="M109.44,250.68626h18.72" fill="none" stroke="#0000ff"/><path d="M128.16,265.28739h18.72" fill="none" stroke="#0000ff"/><path d="M146.88,276.79161h18.72" fill="none" stroke="#0000ff"/><path d="M165.6,284.47607h18.72" fill="none" stroke="#0000ff"/><path d="M184.32,287.85792h18.72" fill="none" stroke="#0000ff"/><path d="M203.04,286.72468h18.72" fill="none" stroke="#0000ff"/><path d="M221.76,281.14755h18.72" fill="none" stroke="#0000ff"/><path d="M240.48,271.47695h18.72" fill="none" stroke="#0000ff"/><path d="M259.2,258.32054h18.72" fill="none" stroke="#0000ff"/><path d="M277.92,242.50497h18.72" fill="none" stroke="#0000ff"/><path d="M296.64,225.02399h18.72" fill="none" stroke="#0000ff"/><path d="M315.36,206.97601h18.72" fill="none" stroke="#0000ff"/><path d="M334.08,189.49503h18.72" fill="none" stroke="#0000ff"/><path d="M352.8,173.67946h18.72" fill="none" stroke="#0000ff"/><path d="M371.52,160.52305h18.72" fill="none" stroke="#0000ff"/><path d="M390.24,150.85245h18.72" fill="none" stroke="#0000ff"/><path d="M408.96,145.27532h18.72" fill="none" stroke="#0000ff"/><path d="M427.68,144.14208h18.72" fill="none" stroke="#0000ff"/><path d="M446.4,147.52393h18.72" fill="none" stroke="#0000ff"/><path d="M465.12,155.20839h18.72" fill="none" stroke="#0000ff"/><path d="M483.84,166.71261h18.72" fill="none" stroke="#0000ff"/><path d="M502.56,181.31374h18.72" fill="none" stroke="#0000ff"/><path d="M521.28,198.09433h18.72" fill="none" stroke="#0000ff"/><path d="M72,648h18.72" fill="none" stroke="#0000ff"/><path d="M72,468h18.72" fill="none" stroke="#ff0000"/><path d="M90.72,645.73799h18.72" fill="none" stroke="#0000ff"/><path d="M90.72,483.64366h18.72" fill="none" stroke="#ff0000"/><path d="M109.44,639.09408h18.72" fill="none" stroke="#0000ff"/><path d="M109.44,493.78035h18.72" fill="none" stroke="#ff0000"/><path d="M128.16,628.48574h18.72" fill="none" stroke="#0000ff"/><path d="M128.16,497.77313h18.72" fill="none" stroke="#ff0000"/><path d="M146.88,614.57953h18.72" fill="none" stroke="#0000ff"/><path d="M146.88,495.37114h18.72" fill="none" stroke="#ff0000"/><path d="M165.6,598.24922h18.72" fill="none" stroke="#0000ff"/><path d="M165.6,486.72529h18.72" fill="none" stroke="#ff0000"/><path d="M184.32,580.52092h18.72" fill="none" stroke="#0000ff"/><path d="M184.32,472.37884h18.72" fill="none" stroke="#ff0000"/><path d="M203.04,562.50855h18.72" fill="none" stroke="#0000ff"/><path d="M203.04,453.23323h18.72" fill="none" stroke="#ff0000"/><path d="M221.76,545.34389h18.72" fill="none" stroke="#0000ff"/><path d="M221.76,430.49144h18.72" fill="none" stroke="#ff0000"/><path d="M240.48,530.10547h18.72" fill="none" stroke="#0000ff"/><path d="M240.48,405.58243h18.72" fill="none" stroke="#ff0000"/><path d="M259.2,517.75078h18.72" fill="none" stroke="#0000ff"/><path d="M259.2,380.07131h18.72" fill="none" stroke="#ff0000"/><path d="M277.92,509.05609h18.72" fill="none" stroke="#0000ff"/><path d="M277.92,355.56106h18.72" fill="none" stroke="#ff0000"/><path d="M296.64,504.56774h18.72" fill="none" stroke="#0000ff"/><path d="M296.64,333.59173h18.72" fill="none" stroke="#ff0000"/><path d="M315.36,504.56774h18.72" fill="none" stroke="#0000ff"/><path d="M315.36,315.54375h18.72" fill="none" stroke="#ff0000"/><path d="M334.08,509.05609h18.72" fill="none" stroke="#0000ff"/><path d="M334.08,302.55113h18.72" fill="none" stroke="#ff0000"/><path d="M352.8,517.75078h18.72" fill="none" stroke="#0000ff"/><path d="M352.8,295.43024h18.72" fill="none" stroke="#ff0000"/><path d="M371.52,530.10547h18.72" fill="none" stroke="#0000ff"/><path d="M371.52,294.62852h18.72" fill="none" stroke="#ff0000"/><path d="M390.24,545.34389h18.72" fill="none" stroke="#0000ff"/><path d="M390.24,300.19634h18.72" fill="none" stroke="#ff0000"/><path d="M408.96,562.50855h18.72" fill="none" stroke="#0000ff"/><path d="M408.96,311.78386h18.72" fill="none" stroke="#ff0000"/><path d="M427.68,580.52092h18.72" fill="none" stroke="#0000ff"/><path d="M427.68,328.66299h18.72" fill="none" stroke="#ff0000"/><path d="M446.4,598.24922h18.72" fill="none" stroke="#0000ff"/><path d="M446.4,349.77315h18.72" fill="none" stroke="#ff0000"/><path d="M465.12,614.57953h18.72" fill="none" stroke="#0000ff"/><path d="M465.12,373.78792h18.72" fill="none" stroke="#ff0000"/><path d="M483.84,628.48574h18.72" fill="none" stroke="#0000ff"/><path d="M483.84,399.19835h18.72" fill="none" stroke="#ff0000"/><path d="M502.56,639.09408h18.72" fill="none" stroke="#0000ff"/><path d="M502.56,424.40782h18.72" fill="none" stroke="#ff0000"/><path d="M521.28,645.73799h18.72" fill="none" stroke="#0000ff"/><path d="M521.28,447.83232h18.72" fill="none" stroke="#ff0000"/><path d="M72,216v432" fill="none" stroke="#00ff00"/><path d="M90.72,216v432" fill="none" stroke="#00ff00"/><path d="M109.44,233.90567v411.83232" fill="none" stroke="#00ff00"/><path d="M128.16,250.68626v388.40782" fill="none" stroke="#00ff00"/><path d="M146.88,265.28739v363.19835" fill="none" stroke="#00ff00"/><path d="M165.6,276.79161v337.78792" fill="none" stroke="#00ff00"/><path d="M184.32,284.47607v313.77315" fill="none" stroke="#00ff00"/><path d="M203.04,286.72468v293.79624" fill="none" stroke="#00ff00"/><path d="M221.76,281.14755v281.361" fill="none" stroke="#00ff00"/><path d="M240.48,271.47695v273.86694" fill="none" stroke="#00ff00"/><path d="M259.2,258.32054v271.78493" fill="none" stroke="#00ff00"/><path d="M277.92,242.50497v275.24581" fill="none" stroke="#00ff00"/><path d="M296.64,225.02399v284.0321" fill="none" stroke="#00ff00"/><path d="M315.36,206.97601v297.59173" fill="none" stroke="#00ff00"/><path d="M334.08,189.49503v319.56106" fill="none" stroke="#00ff00"/><path d="M352.8,173.67946v344.07131" fill="none" stroke="#00ff00"/><path d="M371.52,160.52305v369.58243" fill="none" stroke="#00ff00"/><path d="M390.24,150.85245v394.49144" fill="none" stroke="#00ff00"/><path d="M408.96,145.27532v417.23323" fill="none" stroke="#00ff00"/><path d="M427.68,144.14208v436.37884" fill="none" stroke="#00ff00"/><path d="M446.4,144.14208v454.10715" fill="none" stroke="#00ff00"/><path d="M465.12,147.52393v467.0556" fill="none" stroke="#00ff00"/><path d="M483.84,155.20839l0,473.27735" fill="none" stroke="#00ff00"/><path d="M502.56,166.71261l0,472.38147" fill="none" stroke="#00ff00"/><path d="M521.28,181.31374v464.42425" fill="none" stroke="#00ff00"/><path d="M540,198.09433v447.64366" fill="none" stroke="#00ff00"/><path d="M0,396h72" fill="none" stroke="#0000ff"/><path d="M540,396h72" fill="none" stroke="#0000ff"/></g></svg>
