<svg version="1.1" xmlns="http://www.w3.org/2000/svg" xmlns:xlink="http://www.w3.org/1999/xlink" width="613" height="793" viewBox="-0.5,-0.5,613,793"><g fill="none" fill-rule="nonzero" stroke="none" stroke-width="1" stroke-linecap="butt" stroke-linejoin="miter" stroke-miterlimit="10" stroke-dasharray="" stroke-dashoffset="0" font-family="none" font-weight="none" font-size="none" text-anchor="none" style="mix-blend-mode: normal"><path d="M0,792v-792h612v792z" fill="#f5f5f5" stroke="#000000"/><path d="M72,288h18.72" fill="none" stroke="#0000ff"/><path d="M90.72,285.73799h18.72" fill="none" stroke="#0000ff"/><path d="M109.44,279.09408h18.72" fill="none" stroke="#0000ff"/><path d="M128.16,268.48574h18.72" fill="none" stroke="#0000ff"/><path d="M146.88,254.57953h18.72" fill="none" stroke="#0000ff"/><path d="M165.6,238.24922h18.72" fill="none" stroke="#0000ff"/><path d="M184.32,220.52092h18.72" fill="none" stroke="#0000ff"/><path d="M203.04,202.50855h18.72" fill="none" stroke="#0000ff"/><path d="M221.76,185.34389h18.72" fill="none" stroke="#0000ff"/><path d="M240.48,170.10547h18.72" fill="none" stroke="#0000ff"/><path d="M259.2,157.75078h18.72" fill="none" stroke="#0000ff"/><path d="M277.92,149.05609h18.72" fill="none" stroke="#0000ff"/><path d="M296.64,144.56774h18.72" fill="none" stroke="#0000ff"/><path d="M315.36,144.56774h18.72" fill="none" stroke="#0000ff"/><path d="M334.08,149.05609h18.72" fill="none" stroke="#0000ff"/><path d="M352.8,157.75078h18.72" fill="none" stroke="#0000ff"/><path d="M371.52,170.10547h18.72" fill="none" stroke="#0000ff"/><path d="M390.24,185.34389h18.72" fill="none" stroke="#0000ff"/><path d="M408.96,202.50855h18.72" fill="none" stroke="#0000ff"/><path d="M427.68,220.52092h18.72" fill="none" stroke="#0000ff"/><path d="M446.4,238.24922h18.72" fill="none" stroke="#0000ff"/><path d="M465.12,254.57953h18.72" fill="none" stroke="#0000ff"/><path d="M483.84,268.48574h18.72" fill="none" stroke="#0000ff"/><path d="M502.56,279.09408h18.72" fill="none" stroke="#0000ff"/><path d="M521.28,285.73799h18.72" fill="none" stroke="#0000ff"/><path d="M72,648h18.72" fill="none" stroke="#0000ff"/><path d="M72,540h18.72" fill="none" stroke="#ff0000"/><path d="M90.72,645.73799h18.72" fill="none" stroke="#0000ff"/><path d="M90.72,535.47598h18.72" fill="none" stroke="#ff0000"/><path d="M109.44,639.09408h18.72" fill="none" stroke="#0000ff"/><path d="M109.44,522.18816h18.72" fill="none" stroke="#ff0000"/><path d="M128.16,628.48574h18.72" fill="none" stroke="#0000ff"/><path d="M128.16,500.97148h18.72" fill="none" stroke="#ff0000"/><path d="M146.88,614.57953h18.72" fill="none" stroke="#0000ff"/><path d="M146.88,473.15906h18.72" fill="none" stroke="#ff0000"/><path d="M165.6,598.24922h18.72" fill="none" stroke="#0000ff"/><path d="M165.6,440.49845h18.72" fill="none" stroke="#ff0000"/><path d="M184.32,580.52092h18.72" fill="none" stroke="#0000ff"/><path d="M184.32,405.04183h18.72" fill="none" stroke="#ff0000"/><path d="M203.04,562.50855h18.72" fill="none" stroke="#0000ff"/><path d="M203.04,369.01709h18.72" fill="none" stroke="#ff0000"/><path d="M221.76,545.34389h18.72" fill="none" stroke="#0000ff"/><path d="M221.76,334.68778h18.72" fill="none" stroke="#ff0000"/><path d="M240.48,530.10547h18.72" fill="none" stroke="#0000ff"/><path d="M240.48,304.21095h18.72" fill="none" stroke="#ff0000"/><path d="M259.2,517.75078h18.72" fill="none" stroke="#0000ff"/><path d="M259.2,279.50155h18.72" fill="none" stroke="#ff0000"/><path d="M277.92,509.05609h18.72" fill="none" stroke="#0000ff"/><path d="M277.92,262.11219h18.72" fill="none" stroke="#ff0000"/><path d="M296.64,504.56774h18.72" fill="none" stroke="#0000ff"/><path d="M296.64,253.13548h18.72" fill="none" stroke="#ff0000"/><path d="M315.36,504.56774h18.72" fill="none" stroke="#0000ff"/><path d="M315.36,253.13548h18.72" fill="none" stroke="#ff0000"/><path d="M334.08,509.05609h18.72" fill="none" stroke="#0000ff"/><path d="M334.08,262.11219h18.72" fill="none" stroke="#ff0000"/><path d="M352.8,517.75078h18.72" fill="none" stroke="#0000ff"/><path d="M352.8,279.50155h18.72" fill="none" stroke="#ff0000"/><path d="M371.52,530.10547h18.72" fill="none" stroke="#0000ff"/><path d="M371.52,304.21095h18.72" fill="none" stroke="#ff0000"/><path d="M390.24,545.34389h18.72" fill="none" stroke="#0000ff"/><path d="M390.24,334.68778h18.72" fill="none" stroke="#ff0000"/><path d="M408.96,562.50855h18.72" fill="none" stroke="#0000ff"/><path d="M408.96,369.01709h18.72" fill="none" stroke="#ff0000"/><path d="M427.68,580.52092h18.72" fill="none" stroke="#0000ff"/><path d="M427.68,405.04183h18.72" fill="none" stroke="#ff0000"/><path d="M446.4,598.24922h18.72" fill="none" stroke="#0000ff"/><path d="M446.4,440.49845h18.72" fill="none" stroke="#ff0000"/><path d="M465.12,614.57953h18.72" fill="none" stroke="#0000ff"/><path d="M465.12,473.15906h18.72" fill="none" stroke="#ff0000"/><path d="M483.84,628.48574h18.72" fill="none" stroke="#0000ff"/><path d="M483.84,500.97148h18.72" fill="none" stroke="#ff0000"/><path d="M502.56,639.09408h18.72" fill="none" stroke="#0000ff"/><path d="M502.56,522.18816h18.72" fill="none" stroke="#ff0000"/><path d="M521.28,645.73799h18.72" fill="none" stroke="#0000ff"/><path d="M521.28,535.47598h18.72" fill="none" stroke="#ff0000"/><path d="M72,288v360" fill="none" stroke="#00ff00"/><path d="M90.72,285.73799v362.26201" fill="none" stroke="#00ff00"/><path d="M109.44,279.09408v366.64391" fill="none" stroke="#00ff00"/><path d="M128.16,268.48574v370.60834" fill="none" stroke="#00ff00"/><path d="M146.88,254.57953v373.90621" fill="none" stroke="#00ff00"/><path d="M165.6,238.24922v376.33031" fill="none" stroke="#00ff00"/><path d="M184.32,220.52092v377.72831" fill="none" stroke="#00ff00"/><path d="M203.04,202.50855v378.01237" fill="none" stroke="#00ff00"/><path d="M221.76,185.34389v377.16465" fill="none" stroke="#00ff00"/><path d="M240.48,170.10547v375.23842" fill="none" stroke="#00ff00"/><path d="M259.2,157.75078v372.3547" fill="none" stroke="#00ff00"/><path d="M277.92,149.05609v368.69468" fill="none" stroke="#00ff00"/><path d="M296.64,144.56774v364.48835" fill="none" stroke="#00ff00"/><path d="M315.36,144.56774v360" fill="none" stroke="#00ff00"/><path d="M334.08,144.56774l0,364.48835" fill="none" stroke="#00ff00"/><path d="M352.8,149.05609l0,368.69468" fill="none" stroke="#00ff00"/><path d="M371.52,157.75078v372.3547" fill="none" stroke="#00ff00"/><path d="M390.24,170.10547v375.23842" fill="none" stroke="#00ff00"/><path d="M408.96,185.34389l0,377.16465" fill="none" stroke="#00ff00"/><path d="M427.68,202.50855l0,378.01237" fill="none" stroke="#00ff00"/><path d="M446.4,220.52092v377.72831" fill="none" stroke="#00ff00"/><path d="M465.12,238.24922v376.33031" fill="none" stroke="#00ff00"/><path d="M483.84,254.57953l0,373.90621" fill="none" stroke="#00ff00"/><path d="M502.56,268.48574l0,370.60834" fill="none" stroke="#00ff00"/><path d="M521.28,279.09408v366.64391" fill="none" stroke="#00ff00"/><path d="M540,285.73799v360" fill="none" stroke="#00ff00"/><path d="M0,396h72" fill="none" stroke="#0000ff"/><path d="M540,396h72" fill="none" stroke="#0000ff"/></g></svg>
