<svg version="1.1" xmlns="http://www.w3.org/2000/svg" xmlns:xlink="http://www.w3.org/1999/xlink" width="613" height="793" viewBox="-0.5,-0.5,613,793"><g fill="none" fill-rule="nonzero" stroke="none" stroke-width="1" stroke-linecap="butt" stroke-linejoin="miter" stroke-miterlimit="10" stroke-dasharray="" stroke-dashoffset="0" font-family="none" font-weight="none" font-size="none" text-anchor="none" style="mix-blend-mode: normal"><path d="M0,792v-792h612v792z" fill="#f5f5f5" stroke="#000000"/><path d="M72,216h23.4" fill="none" stroke="#0000ff"/><path d="M72,396h23.4" fill="none" stroke="#ff0000"/><path d="M72,576h23.4" fill="none" stroke="#0000ff"/><path d="M95.4,238.24922h23.4" fill="none" stroke="#0000ff"/><path d="M95.4,440.49845h23.4" fill="none" stroke="#ff0000"/><path d="M95.4,598.24922h23.4" fill="none" stroke="#0000ff"/><path d="M118.8,258.32054h23.4" fill="none" stroke="#0000ff"/><path d="M118.8,480.64108h23.4" fill="none" stroke="#ff0000"/><path d="M118.8,618.32054h23.4" fill="none" stroke="#0000ff"/><path d="M142.2,274.24922h23.4" fill="none" stroke="#0000ff"/><path d="M142.2,512.49845h23.4" fill="none" stroke="#ff0000"/><path d="M142.2,634.24922h23.4" fill="none" stroke="#0000ff"/><path d="M165.6,284.47607h23.4" fill="none" stroke="#0000ff"/><path d="M165.6,532.95214h23.4" fill="none" stroke="#ff0000"/><path d="M165.6,644.47607h23.4" fill="none" stroke="#0000ff"/><path d="M189,288h23.4" fill="none" stroke="#0000ff"/><path d="M189,540h23.4" fill="none" stroke="#ff0000"/><path d="M189,648h23.4" fill="none" stroke="#0000ff"/><path d="M212.4,284.47607h23.4" fill="none" stroke="#0000ff"/><path d="M212.4,532.95214h23.4" fill="none" stroke="#ff0000"/><path d="M212.4,644.47607h23.4" fill="none" stroke="#0000ff"/><path d="M235.8,274.24922h23.4" fill="none" stroke="#0000ff"/><path d="M235.8,512.49845h23.4" fill="none" stroke="#ff0000"/><path d="M235.8,634.24922h23.4" fill="none" stroke="#0000ff"/><path d="M259.2,258.32054h23.4" fill="none" stroke="#0000ff"/><path d="M259.2,480.64108h23.4" fill="none" stroke="#ff0000"/><path d="M259.2,618.32054h23.4" fill="none" stroke="#0000ff"/><path d="M282.6,238.24922h23.4" fill="none" stroke="#0000ff"/><path d="M282.6,440.49845h23.4" fill="none" stroke="#ff0000"/><path d="M282.6,598.24922h23.4" fill="none" stroke="#0000ff"/><path d="M306,216h23.4" fill="none" stroke="#0000ff"/><path d="M306,396h23.4" fill="none" stroke="#ff0000"/><path d="M306,576h23.4" fill="none" stroke="#0000ff"/><path d="M329.4,193.75078h23.4" fill="none" stroke="#0000ff"/><path d="M329.4,351.50155h23.4" fill="none" stroke="#ff0000"/><path d="M329.4,553.75078h23.4" fill="none" stroke="#0000ff"/><path d="M352.8,173.67946h23.4" fill="none" stroke="#0000ff"/><path d="M352.8,311.35892h23.4" fill="none" stroke="#ff0000"/><path d="M352.8,533.67946h23.4" fill="none" stroke="#0000ff"/><path d="M376.2,157.75078h23.4" fill="none" stroke="#0000ff"/><path d="M376.2,279.50155h23.4" fill="none" stroke="#ff0000"/><path d="M376.2,517.75078h23.4" fill="none" stroke="#0000ff"/><path d="M399.6,147.52393h23.4" fill="none" stroke="#0000ff"/><path d="M399.6,259.04786h23.4" fill="none" stroke="#ff0000"/><path d="M399.6,507.52393h23.4" fill="none" stroke="#0000ff"/><path d="M423,144h23.4" fill="none" stroke="#0000ff"/><path d="M423,252h23.4" fill="none" stroke="#ff0000"/><path d="M423,504h23.4" fill="none" stroke="#0000ff"/><path d="M446.4,147.52393h23.4" fill="none" stroke="#0000ff"/><path d="M446.4,259.04786h23.4" fill="none" stroke="#ff0000"/><path d="M446.4,507.52393h23.4" fill="none" stroke="#0000ff"/><path d="M469.8,157.75078h23.4" fill="none" stroke="#0000ff"/><path d="M469.8,279.50155h23.4" fill="none" stroke="#ff0000"/><path d="M469.8,517.75078h23.4" fill="none" stroke="#0000ff"/><path d="M493.2,173.67946h23.4" fill="none" stroke="#0000ff"/><path d="M493.2,311.35892h23.4" fill="none" stroke="#ff0000"/><path d="M493.2,533.67946h23.4" fill="none" stroke="#0000ff"/><path d="M516.6,193.75078h23.4" fill="none" stroke="#0000ff"/><path d="M516.6,351.50155h23.4" fill="none" stroke="#ff0000"/><path d="M516.6,553.75078h23.4" fill="none" stroke="#0000ff"/><path d="M72,216v360" fill="none" stroke="#00ff00"/><path d="M95.4,216v382.24922" fill="none" stroke="#00ff00"/><path d="M118.8,238.24922l0,380.07131" fill="none" stroke="#00ff00"/><path d="M142.2,258.32054v375.92869" fill="none" stroke="#00ff00"/><path d="M165.6,274.24922v370.22685" fill="none" stroke="#00ff00"/><path d="M189,284.47607v363.52393" fill="none" stroke="#00ff00"/><path d="M212.4,284.47607v363.52393" fill="none" stroke="#00ff00"/><path d="M235.8,274.24922v370.22685" fill="none" stroke="#00ff00"/><path d="M259.2,258.32054v375.92869" fill="none" stroke="#00ff00"/><path d="M282.6,238.24922l0,380.07131" fill="none" stroke="#00ff00"/><path d="M306,216v382.24922" fill="none" stroke="#00ff00"/><path d="M329.4,193.75078v382.24922" fill="none" stroke="#00ff00"/><path d="M352.8,173.67946l0,380.07131" fill="none" stroke="#00ff00"/><path d="M376.2,157.75078v375.92869" fill="none" stroke="#00ff00"/><path d="M399.6,147.52393l0,370.22685" fill="none" stroke="#00ff00"/><path d="M423,144v363.52393" fill="none" stroke="#00ff00"/><path d="M446.4,144v363.52393" fill="none" stroke="#00ff00"/><path d="M469.8,147.52393l0,370.22685" fill="none" stroke="#00ff00"/><path d="M493.2,157.75078v375.92869" fill="none" stroke="#00ff00"/><path d="M516.6,173.67946v380.07131" fill="none" stroke="#00ff00"/><path d="M540,193.75078v360" fill="none" stroke="#00ff00"/><path d="M0,396h72" fill="none" stroke="#0000ff"/><path d="M540,396h72" fill="none" stroke="#0000ff"/></g></svg>
